<svg xmlns="http://www.w3.org/2000/svg" width="80" height="80" viewBox="0 0 58 58"><circle r="29" cx="29" cy="29" fill="#ea3f06"/><g fill-rule="nonzero" xmlns="http://www.w3.org/2000/svg" fill="none"><path d="M45.108 23.141V47.9a1.4 1.4 0 0 1-1.4 1.4h-29.4a1.4 1.4 0 0 1-1.4-1.4V23.141l16.1-13.041z" fill="#ff0" data-original="#f0c419"/><path d="M42.308 30.54c0 .491-.031.982-.09 1.47-.547 4.648-3.767 11.361-13.21 14.49-9.443-3.129-12.663-9.842-13.209-14.49-.06-.488-.09-.979-.09-1.47 0-4.571 2.715-8.54 6.65-8.54a8.912 8.912 0 0 1 6.65 3.066A8.912 8.912 0 0 1 35.658 22c3.933 0 6.65 3.969 6.65 8.54z" fill="#df4d60" data-original="#df4d60"/><path d="M42.308 30.54c0 .491-.031.982-.09 1.47-1.912 3.955-7.099 6.79-13.21 6.79S17.71 35.965 15.8 32.01c-.06-.488-.09-.979-.09-1.47 0-4.571 2.715-8.54 6.65-8.54a8.912 8.912 0 0 1 6.65 3.066A8.912 8.912 0 0 1 35.658 22c3.933 0 6.65 3.969 6.65 8.54z" fill="#ff5364" data-original="#ff5364"/><g fill="#ff0" transform="matrix(.7 0 0 .7 8.708 8.7)"><path d="M29 46c1.684 0 2.526 1 4.21 1 3.368 0 3.368-4 1.684-6S32.368 35 29 35s-4.21 4-5.894 6-1.684 6 1.684 6c1.684 0 2.526-1 4.21-1z" data-original="#35495e"/><ellipse cx="24" cy="28.976" rx="3" ry="4" transform="rotate(-9.85 23.925 28.903)" data-original="#35495e"/><ellipse cx="18.549" cy="36.96" rx="2.5" ry="3" transform="rotate(-17.25 18.538 36.917)" data-original="#35495e"/><ellipse cx="34.034" cy="28.975" rx="4" ry="3" transform="rotate(-80.15 34.062 28.983)" data-original="#35495e"/><ellipse cx="39.451" cy="36.96" rx="3" ry="2.5" transform="rotate(-72.72 39.466 36.956)" data-original="#ffff00"/></g><path d="M36.008 15v-4.9a1.4 1.4 0 0 1 1.4-1.4h2.8a1.4 1.4 0 0 1 1.4 1.4v8.4z" fill="#e57e25" data-original="#e57e25"/><path d="M47.102 24.545L29.008 11.812 10.914 24.545a1.4 1.4 0 0 1-1.61-2.29l18.9-13.3a1.4 1.4 0 0 1 1.61 0l18.9 13.3a1.4 1.4 0 1 1-1.61 2.29z" fill="#f29c1f" data-original="#f29c1f"/></g></svg>